<?xml version="1.0" encoding="utf-8"?>
<!-- Generator: Adobe Illustrator 16.0.0, SVG Export Plug-In . SVG Version: 6.00 Build 0)  -->
<!DOCTYPE svg PUBLIC "-//W3C//DTD SVG 1.1//EN" "http://www.w3.org/Graphics/SVG/1.1/DTD/svg11.dtd">
<svg version="1.1" id="レイヤー_1" xmlns="http://www.w3.org/2000/svg" xmlns:xlink="http://www.w3.org/1999/xlink" x="0px"
	 y="0px" width="234.667px" height="261.5px" viewBox="0 0 234.667 261.5" enable-background="new 0 0 234.667 261.5"
	 xml:space="preserve">
<g>
	<circle fill="#FFFFFF" cx="93.368" cy="103.266" r="44.378"/>
	<circle fill="#FFFFFF" cx="181.426" cy="142.209" r="29.436"/>
	<g>
		<g>
			<path fill="#D8A94D" d="M181.854,93.555c-3.835,0-7.559,0.475-11.124,1.356c-3.328-41.54-38.068-74.217-80.462-74.217
				c-44.597,0-80.751,36.15-80.751,80.748c0,44.599,36.154,80.75,80.751,80.75c19.708,0,37.759-7.068,51.779-18.799
				c8.06,13.585,22.866,22.695,39.808,22.695c25.554,0,46.269-20.716,46.269-46.265C228.123,114.27,207.408,93.555,181.854,93.555z
				 M90.268,132.254c-19.758-1.035-37.29-23.707-33.399-40.271c4.347-18.5,22.506-21.299,42.751-11.642
				c15.357,7.326,25.056,0.384,27.375,15.743C129.533,112.911,114.931,133.547,90.268,132.254z M181.854,157.475
				c-16.007,1.57-25.188-13.956-22.89-23.43c3.092-12.749,13.329-7.92,22.89-11.878c9.009-3.73,18.646,0.287,21.155,9.947
				C205.463,141.549,198.182,155.875,181.854,157.475z"/>
		</g>
		<ellipse fill="#7F3820" cx="168.396" cy="109.059" rx="2.619" ry="5.402"/>
		<ellipse fill="#7F3820" cx="184.474" cy="109.059" rx="2.62" ry="5.402"/>
		<path fill="none" stroke="#7F3820" stroke-linecap="round" stroke-miterlimit="10" d="M173.807,99.663
			c0,0-11.301-2.609-1.738-15.358"/>
		<path fill="none" stroke="#7F3820" stroke-linecap="round" stroke-miterlimit="10" d="M181.777,101.232
			c0,0-11.303-2.607-1.74-15.357"/>
		<g>
			<ellipse fill="#7F3820" cx="95.757" cy="50.203" rx="3.863" ry="9.272"/>
			<ellipse fill="#7F3820" cx="118.82" cy="53.97" rx="3.864" ry="9.272"/>
		</g>
		<g>
			<path fill="#231815" d="M71.487,207.939c2.059,0,3.227,1.223,3.227,2.947c0,1.727-1.167,3.005-3.227,3.005H58.412v12.964
				c0,1.891-1.613,2.839-3.17,2.839c-1.614,0-3.171-0.948-3.171-2.839l-2.101-33.902c-0.101-1.633,1.316-2.842,2.945-2.723
				c10.276,0.761,10.804,0.07,14.678,0.07c5.453,0,9.959,0.336,12.908,1.337c1.279,0.445,1.836,1.502,1.836,2.558
				c0,1.67-1.336,3.395-3.171,3.061c-2.56-0.612-7.178-0.945-10.238-0.945c-3.561,0-7.79,0.277-10.516,0.891v10.738H71.487z"/>
			<path fill="#231815" d="M93.149,219.089c0-1.083,0.792-1.553,1.584-1.553c0.821,0,1.642,0.47,1.642,1.553v2.517
				c0,4.223-2.785,6.125-6.273,6.125c-3.489,0-6.274-1.902-6.274-6.125v-2.517c0-1.083,0.821-1.553,1.613-1.553
				s1.612,0.497,1.612,1.553v2.398c0,2.169,1.084,3.284,3.05,3.284c1.963,0,3.048-1.115,3.048-3.284V219.089z"/>
			<path fill="#231815" d="M108.574,220.988c0-2.283-1.202-3.313-3.048-3.313c-1.848,0-3.05,1.029-3.05,3.313v4.927
				c0,0.997-0.703,1.522-1.612,1.522c-0.909,0-1.613-0.498-1.613-1.522v-4.955c0-4.223,2.609-6.129,6.274-6.129
				c3.664,0,6.273,1.906,6.273,6.129v4.955c0,0.997-0.704,1.522-1.642,1.522c-0.908,0-1.583-0.498-1.583-1.522V220.988z"/>
			<path fill="#231815" d="M131.27,218.379c0,1.849-1.496,3.373-3.342,3.373c-1.877,0-3.371-1.524-3.371-3.373
				c0-1.844,1.494-3.34,3.371-3.34C129.773,215.039,131.27,216.535,131.27,218.379z"/>
			<path fill="#231815" d="M154.526,215.975c1.085,0,1.7,0.646,1.7,1.555c0,0.909-0.615,1.584-1.7,1.584h-6.89v6.832
				c0,0.994-0.851,1.492-1.672,1.492c-0.85,0-1.67-0.498-1.67-1.492V208.53c0.059-1.554,5.98-1.849,8.18-1.849
				c2.873,0,5.248,0.178,6.801,0.705c0.675,0.232,0.969,0.791,0.969,1.349c0,0.878-0.705,1.787-1.672,1.614
				c-1.35-0.326-3.782-0.5-5.395-0.5c-1.876,0-4.104,0.146-5.541,0.468v5.657H154.526z"/>
			<path fill="#231815" d="M171.036,219.089c0-1.083,0.792-1.553,1.583-1.553c0.822,0,1.642,0.47,1.642,1.553v2.517
				c0,4.223-2.784,6.125-6.272,6.125c-3.49,0-6.274-1.902-6.274-6.125v-2.517c0-1.083,0.821-1.553,1.612-1.553
				s1.612,0.497,1.612,1.553v2.398c0,2.169,1.085,3.284,3.05,3.284c1.963,0,3.048-1.115,3.048-3.284V219.089z"/>
			<path fill="#231815" d="M186.461,220.988c0-2.283-1.201-3.313-3.049-3.313c-1.847,0-3.049,1.029-3.049,3.313v4.927
				c0,0.997-0.702,1.522-1.611,1.522c-0.91,0-1.613-0.498-1.613-1.522v-4.955c0-4.223,2.609-6.129,6.273-6.129
				c3.666,0,6.273,1.906,6.273,6.129v4.955c0,0.997-0.703,1.522-1.642,1.522c-0.909,0-1.583-0.498-1.583-1.522V220.988z"/>
		</g>
		<g>
			<path fill="#231815" d="M94.816,238.618h2.54c1.524,0,2.815,0.331,3.872,0.995c0.8,0.496,1.424,1.17,1.871,2.025
				c0.468,0.898,0.702,1.92,0.702,3.063c0,1.543-0.411,2.842-1.233,3.906c-1.144,1.48-2.902,2.22-5.276,2.22h-2.474
				c-1.285,0-1.927-0.634-1.927-1.903v-8.402C92.889,239.25,93.531,238.618,94.816,238.618z M95.183,240.963v7.504
				c0,0.256,0.134,0.384,0.4,0.384h1.389c1.121,0,1.997-0.188,2.63-0.563c1.17-0.709,1.755-1.9,1.755-3.578
				c0-0.957-0.212-1.779-0.637-2.466c-0.506-0.816-1.22-1.326-2.14-1.526c-0.436-0.094-0.956-0.139-1.56-0.139h-1.438
				C95.317,240.578,95.183,240.707,95.183,240.963z"/>
			<path fill="#231815" d="M109.631,241.9c1.23,0,2.242,0.408,3.037,1.225c0.833,0.854,1.25,1.977,1.25,3.365
				c0,1.096-0.256,2.035-0.768,2.818c-0.79,1.203-1.968,1.805-3.537,1.805c-1.371,0-2.455-0.479-3.25-1.439
				c-0.696-0.832-1.045-1.896-1.045-3.191c0-1.387,0.415-2.504,1.241-3.35C107.36,242.312,108.384,241.9,109.631,241.9z
				 M109.606,243.673c-0.691,0-1.236,0.302-1.633,0.899c-0.332,0.499-0.499,1.135-0.499,1.902c0,0.582,0.093,1.092,0.278,1.526
				c0.371,0.86,0.996,1.291,1.879,1.291c0.702,0,1.246-0.294,1.633-0.883c0.331-0.507,0.498-1.147,0.498-1.935
				c0-0.795-0.177-1.443-0.531-1.945C110.834,243.959,110.292,243.673,109.606,243.673z"/>
			<path fill="#231815" d="M122.117,249.504c-0.702,1.05-1.712,1.577-3.03,1.577c-1.04,0-1.851-0.376-2.434-1.126
				c-0.452-0.578-0.678-1.412-0.678-2.501v-4.532c0-0.218,0.066-0.403,0.196-0.557c0.207-0.234,0.498-0.352,0.875-0.352
				c0.424,0,0.731,0.148,0.922,0.441c0.087,0.137,0.13,0.293,0.13,0.467v4.327c0,0.48,0.074,0.876,0.221,1.193
				c0.239,0.522,0.639,0.783,1.2,0.783c0.626,0,1.202-0.313,1.731-0.938c0.396-0.474,0.596-0.947,0.596-1.422v-3.943
				c0-0.235,0.076-0.432,0.229-0.59c0.202-0.211,0.482-0.318,0.842-0.318c0.425,0,0.732,0.148,0.922,0.441
				c0.087,0.137,0.132,0.293,0.132,0.467v7.219c0,0.219-0.052,0.404-0.155,0.555c-0.153,0.227-0.39,0.335-0.711,0.335
				c-0.518,0-0.813-0.271-0.891-0.816L122.117,249.504z"/>
			<path fill="#231815" d="M128.619,243.469c0.311-0.42,0.678-0.75,1.102-0.996c0.594-0.349,1.221-0.523,1.879-0.523
				c0.984,0,1.771,0.332,2.36,0.996c0.522,0.582,0.784,1.455,0.784,2.613v4.551c0,0.219-0.066,0.402-0.197,0.555
				c-0.207,0.232-0.498,0.351-0.873,0.351c-0.425,0-0.732-0.146-0.923-0.441c-0.087-0.136-0.131-0.291-0.131-0.464v-4.314
				c0-0.479-0.076-0.879-0.229-1.207c-0.245-0.522-0.646-0.783-1.2-0.783c-0.589,0-1.149,0.305-1.684,0.916
				c-0.424,0.477-0.637,0.971-0.637,1.476v3.913c0,0.232-0.076,0.429-0.229,0.586c-0.207,0.214-0.484,0.319-0.833,0.319
				c-0.431,0-0.74-0.146-0.931-0.441c-0.088-0.13-0.131-0.286-0.131-0.464v-7.229c0-0.219,0.053-0.399,0.154-0.549
				c0.152-0.222,0.387-0.334,0.703-0.334c0.501,0,0.801,0.273,0.898,0.818L128.619,243.469z"/>
			<path fill="#231815" d="M143.661,249.504c-0.702,1.05-1.712,1.577-3.029,1.577c-1.04,0-1.851-0.376-2.434-1.126
				c-0.452-0.578-0.679-1.412-0.679-2.501v-4.532c0-0.218,0.066-0.403,0.197-0.557c0.206-0.234,0.498-0.352,0.874-0.352
				c0.424,0,0.731,0.148,0.923,0.441c0.086,0.137,0.13,0.293,0.13,0.467v4.327c0,0.48,0.073,0.876,0.221,1.193
				c0.239,0.522,0.64,0.783,1.2,0.783c0.626,0,1.204-0.313,1.731-0.938c0.397-0.474,0.597-0.947,0.597-1.422v-3.943
				c0-0.235,0.076-0.432,0.229-0.59c0.201-0.211,0.482-0.318,0.841-0.318c0.425,0,0.732,0.148,0.923,0.441
				c0.088,0.137,0.131,0.293,0.131,0.467v7.219c0,0.219-0.051,0.404-0.154,0.555c-0.152,0.227-0.389,0.335-0.712,0.335
				c-0.517,0-0.813-0.271-0.89-0.816L143.661,249.504z"/>
			<path fill="#231815" d="M149.6,242.203v-1.854c0-0.229,0.073-0.423,0.221-0.58c0.201-0.23,0.481-0.344,0.841-0.344
				c0.419,0,0.725,0.152,0.915,0.457c0.088,0.137,0.131,0.291,0.131,0.467v1.854h1.723c0.201,0,0.364,0.073,0.49,0.221
				c0.152,0.174,0.229,0.395,0.229,0.66c0,0.35-0.126,0.605-0.375,0.768c-0.099,0.062-0.213,0.092-0.344,0.092h-1.723v6.166
				c0,0.219-0.066,0.402-0.196,0.555c-0.208,0.232-0.495,0.351-0.865,0.351c-0.42,0-0.725-0.146-0.915-0.441
				c-0.088-0.13-0.131-0.286-0.131-0.464v-6.166h-1.724c-0.163,0-0.305-0.053-0.424-0.156c-0.196-0.168-0.294-0.408-0.294-0.719
				c0-0.359,0.125-0.615,0.375-0.768c0.104-0.066,0.218-0.098,0.343-0.098H149.6z"/>
		</g>
		
			<rect x="52.441" y="136.333" transform="matrix(0.8738 0.4863 -0.4863 0.8738 73.3753 -8.5645)" fill="#FFFFFF" width="1.492" height="1.491"/>
		
			<rect x="40.243" y="138.773" transform="matrix(0.8738 0.4863 -0.4863 0.8738 73.0226 -2.3241)" fill="#FFFFFF" width="1.492" height="1.492"/>
		
			<rect x="56.101" y="152.191" transform="matrix(0.8737 0.4864 -0.4864 0.8737 81.5751 -8.3387)" fill="#FFFFFF" width="1.492" height="1.491"/>
		
			<rect x="64.64" y="141.213" transform="matrix(0.8732 0.4874 -0.4874 0.8732 77.4914 -13.8652)" fill="#FFFFFF" width="1.493" height="1.49"/>
		
			<rect x="37.803" y="118.034" transform="matrix(0.8741 0.4858 -0.4858 0.8741 62.5553 -3.7698)" fill="#FFFFFF" width="1.493" height="1.492"/>
		<path fill="#231815" d="M88.808,213.559c0,1.012-0.545,1.832-1.219,1.832s-1.22-0.82-1.22-1.832c0-1.009,0.546-1.829,1.22-1.829
			S88.808,212.55,88.808,213.559z"/>
		<path fill="#231815" d="M93.688,213.559c0,1.012-0.546,1.832-1.219,1.832c-0.674,0-1.221-0.82-1.221-1.832
			c0-1.009,0.547-1.829,1.221-1.829C93.142,211.729,93.688,212.55,93.688,213.559z"/>
		<ellipse fill="#231815" cx="165.661" cy="214.78" rx="1.22" ry="1.829"/>
		<ellipse fill="#231815" cx="170.541" cy="214.78" rx="1.22" ry="1.829"/>
		
			<rect x="204.132" y="159.282" transform="matrix(0.8737 0.4865 -0.4865 0.8737 103.7422 -79.4626)" fill="#FFFFFF" width="1.493" height="1.492"/>
		
			<rect x="195.593" y="162.943" transform="matrix(0.8738 0.4863 -0.4863 0.8738 104.3837 -74.8218)" fill="#FFFFFF" width="1.492" height="1.49"/>
		
			<rect x="191.933" y="173.922" transform="matrix(0.8738 0.4863 -0.4863 0.8738 109.2452 -71.6515)" fill="#FFFFFF" width="1.494" height="1.491"/>
		
			<rect x="209.012" y="164.161" transform="matrix(0.8739 0.486 -0.486 0.8739 106.5921 -81.1614)" fill="#FFFFFF" width="1.493" height="1.492"/>
		
			<rect x="212.671" y="150.744" transform="matrix(0.8734 0.487 -0.487 0.8734 100.8017 -84.7602)" fill="#FFFFFF" width="1.494" height="1.49"/>
	</g>
</g>
</svg>
